<svg width="34" height="34" viewBox="0 0 34 34" fill="none" xmlns="http://www.w3.org/2000/svg">
<path d="M16.7383 0C13.5316 0.0060907 10.3959 0.944276 7.71304 2.70028C5.03022 4.45628 2.91612 6.95432 1.62824 9.89011C0.340354 12.8259 -0.0657251 16.0727 0.459461 19.2351C0.984648 22.3975 2.41843 25.339 4.58618 27.7013C6.13441 29.379 8.01347 30.7179 10.105 31.6337C12.1964 32.5495 14.455 33.0223 16.7383 33.0223C19.0216 33.0223 21.2801 32.5495 23.3716 31.6337C25.4631 30.7179 27.3422 29.379 28.8904 27.7013C31.0582 25.339 32.4919 22.3975 33.0171 19.2351C33.5423 16.0727 33.1362 12.8259 31.8483 9.89011C30.5605 6.95432 28.4464 4.45628 25.7635 2.70028C23.0807 0.944276 19.945 0.0060907 16.7383 0ZM16.7383 29.7508C13.3133 29.7456 10.0239 28.4125 7.5622 26.032C8.30959 24.2131 9.581 22.6574 11.2149 21.5625C12.8487 20.4677 14.7713 19.8831 16.7383 19.8831C18.7053 19.8831 20.6278 20.4677 22.2617 21.5625C23.8956 22.6574 25.167 24.2131 25.9144 26.032C23.4527 28.4125 20.1633 29.7456 16.7383 29.7508ZM13.4316 13.2226C13.4316 12.5688 13.6255 11.9297 13.9889 11.3861C14.3522 10.8425 14.8687 10.4188 15.4729 10.1686C16.0771 9.91837 16.742 9.8529 17.3834 9.98045C18.0248 10.108 18.614 10.4228 19.0765 10.8851C19.5389 11.3474 19.8539 11.9365 19.9815 12.5777C20.109 13.2189 20.0436 13.8836 19.7933 14.4876C19.543 15.0916 19.1192 15.6079 18.5754 15.9711C18.0316 16.3344 17.3923 16.5282 16.7383 16.5282C15.8613 16.5282 15.0202 16.18 14.4001 15.56C13.78 14.9401 13.4316 14.0993 13.4316 13.2226ZM28.1629 23.1395C26.6857 20.6136 24.4121 18.6488 21.6983 17.553C22.5402 16.5987 23.0887 15.4219 23.2781 14.1638C23.4674 12.9056 23.2896 11.6195 22.766 10.4599C22.2423 9.30024 21.3951 8.31627 20.3259 7.62607C19.2567 6.93586 18.011 6.56873 16.7383 6.56873C15.4656 6.56873 14.2199 6.93586 13.1507 7.62607C12.0815 8.31627 11.2342 9.30024 10.7106 10.4599C10.1869 11.6195 10.0091 12.9056 10.1985 14.1638C10.3879 15.4219 10.9364 16.5987 11.7782 17.553C9.06443 18.6488 6.79087 20.6136 5.31365 23.1395C4.13637 21.1348 3.51434 18.8529 3.5115 16.5282C3.5115 13.0214 4.90503 9.65816 7.38554 7.17845C9.86604 4.69874 13.2303 3.30565 16.7383 3.30565C20.2463 3.30565 23.6105 4.69874 26.091 7.17845C28.5715 9.65816 29.9651 13.0214 29.9651 16.5282C29.9622 18.8529 29.3402 21.1348 28.1629 23.1395Z" fill="black"/>
</svg>
